<svg width="328" height="53" viewBox="0 0 328 53" fill="none" xmlns="http://www.w3.org/2000/svg">
<path d="M9.36391 19H5.47591V5.368H0.0999063V2.2H14.7399V5.368H9.36391V19ZM24.4158 5.896C27.4638 5.896 29.7678 7.672 29.7678 11.608V19H26.0238V12.184C26.0238 10.096 25.0638 9.136 23.4078 9.136C21.6078 9.136 20.3118 10.24 20.3118 12.616V19H16.5678V1.192H20.3118V7.432C21.3198 6.424 22.7598 5.896 24.4158 5.896ZM45.9033 12.592C45.9033 12.88 45.8553 13.288 45.8313 13.6H36.0633C36.4233 15.208 37.7913 16.192 39.7593 16.192C41.1273 16.192 42.1113 15.784 42.9993 14.944L44.9913 17.104C43.7913 18.472 41.9913 19.192 39.6633 19.192C35.1993 19.192 32.2953 16.384 32.2953 12.544C32.2953 8.68 35.2473 5.896 39.1833 5.896C42.9753 5.896 45.9033 8.44 45.9033 12.592ZM39.2073 8.728C37.5033 8.728 36.2793 9.76 36.0153 11.416H42.3753C42.1113 9.784 40.8873 8.728 39.2073 8.728ZM59.3208 11.992V15.88H68.4648V19H55.4568V2.2H68.1528V5.32H59.3208V8.968H67.1208V11.992H59.3208ZM79.1424 5.896C82.1904 5.896 84.4944 7.672 84.4944 11.608V19H80.7504V12.184C80.7504 10.096 79.7904 9.136 78.1344 9.136C76.3344 9.136 75.0384 10.24 75.0384 12.616V19H71.2944V6.088H74.8704V7.6C75.8784 6.496 77.3904 5.896 79.1424 5.896ZM95.2082 15.736L96.2162 18.376C95.4482 18.928 94.3202 19.192 93.1682 19.192C90.1202 19.192 88.3442 17.632 88.3442 14.56V9.256H86.3522V6.376H88.3442V3.232H92.0882V6.376H95.3042V9.256H92.0882V14.512C92.0882 15.616 92.6882 16.216 93.6962 16.216C94.2482 16.216 94.8002 16.048 95.2082 15.736ZM101.894 6.088V7.792C102.806 6.544 104.342 5.896 106.334 5.896V9.352C106.022 9.328 105.782 9.304 105.494 9.304C103.43 9.304 102.062 10.432 102.062 12.904V19H98.3178V6.088H101.894ZM121.091 12.592C121.091 12.88 121.043 13.288 121.019 13.6H111.251C111.611 15.208 112.979 16.192 114.947 16.192C116.315 16.192 117.299 15.784 118.187 14.944L120.179 17.104C118.979 18.472 117.179 19.192 114.851 19.192C110.387 19.192 107.483 16.384 107.483 12.544C107.483 8.68 110.435 5.896 114.371 5.896C118.163 5.896 121.091 8.44 121.091 12.592ZM114.395 8.728C112.691 8.728 111.467 9.76 111.203 11.416H117.563C117.299 9.784 116.075 8.728 114.395 8.728ZM131.215 5.896C134.839 5.896 137.647 8.488 137.647 12.544C137.647 16.6 134.839 19.192 131.215 19.192C129.607 19.192 128.287 18.688 127.327 17.632V23.656H123.583V6.088H127.159V7.576C128.095 6.448 129.487 5.896 131.215 5.896ZM130.567 16.12C132.439 16.12 133.855 14.776 133.855 12.544C133.855 10.312 132.439 8.968 130.567 8.968C128.695 8.968 127.279 10.312 127.279 12.544C127.279 14.776 128.695 16.12 130.567 16.12ZM143.73 6.088V7.792C144.642 6.544 146.178 5.896 148.17 5.896V9.352C147.858 9.328 147.618 9.304 147.33 9.304C145.266 9.304 143.898 10.432 143.898 12.904V19H140.154V6.088H143.73ZM162.927 12.592C162.927 12.88 162.879 13.288 162.855 13.6H153.087C153.447 15.208 154.815 16.192 156.783 16.192C158.151 16.192 159.135 15.784 160.023 14.944L162.015 17.104C160.815 18.472 159.015 19.192 156.687 19.192C152.223 19.192 149.319 16.384 149.319 12.544C149.319 8.68 152.271 5.896 156.207 5.896C159.999 5.896 162.927 8.44 162.927 12.592ZM156.231 8.728C154.527 8.728 153.303 9.76 153.039 11.416H159.399C159.135 9.784 157.911 8.728 156.231 8.728ZM173.267 5.896C176.315 5.896 178.619 7.672 178.619 11.608V19H174.875V12.184C174.875 10.096 173.915 9.136 172.259 9.136C170.459 9.136 169.163 10.24 169.163 12.616V19H165.419V6.088H168.995V7.6C170.003 6.496 171.515 5.896 173.267 5.896ZM194.755 12.592C194.755 12.88 194.707 13.288 194.683 13.6H184.915C185.275 15.208 186.643 16.192 188.611 16.192C189.979 16.192 190.963 15.784 191.851 14.944L193.843 17.104C192.643 18.472 190.843 19.192 188.515 19.192C184.051 19.192 181.147 16.384 181.147 12.544C181.147 8.68 184.099 5.896 188.035 5.896C191.827 5.896 194.755 8.44 194.755 12.592ZM188.059 8.728C186.355 8.728 185.131 9.76 184.867 11.416H191.227C190.963 9.784 189.739 8.728 188.059 8.728ZM206.512 12.472V6.088H210.256V19H206.704V17.464C205.72 18.592 204.28 19.192 202.696 19.192C199.456 19.192 197.176 17.368 197.176 13.384V6.088H200.92V12.832C200.92 14.992 201.88 15.952 203.536 15.952C205.264 15.952 206.512 14.848 206.512 12.472ZM217.3 6.088V7.792C218.212 6.544 219.748 5.896 221.74 5.896V9.352C221.428 9.328 221.188 9.304 220.9 9.304C218.836 9.304 217.468 10.432 217.468 12.904V19H213.724V6.088H217.3ZM228.404 19.192C226.22 19.192 224.012 18.592 222.812 17.8L224.06 15.112C225.212 15.856 226.964 16.36 228.548 16.36C230.276 16.36 230.924 15.904 230.924 15.184C230.924 13.072 223.124 15.232 223.124 10.072C223.124 7.624 225.332 5.896 229.1 5.896C230.876 5.896 232.844 6.304 234.068 7.024L232.82 9.688C231.548 8.968 230.276 8.728 229.1 8.728C227.42 8.728 226.7 9.256 226.7 9.928C226.7 12.136 234.5 10 234.5 15.088C234.5 17.488 232.268 19.192 228.404 19.192ZM244.658 5.896C247.706 5.896 250.01 7.672 250.01 11.608V19H246.266V12.184C246.266 10.096 245.306 9.136 243.65 9.136C241.85 9.136 240.554 10.24 240.554 12.616V19H236.81V1.192H240.554V7.432C241.562 6.424 243.002 5.896 244.658 5.896ZM255.276 4.288C253.884 4.288 252.948 3.376 252.948 2.2C252.948 1.024 253.884 0.111999 255.276 0.111999C256.668 0.111999 257.604 0.975999 257.604 2.128C257.604 3.376 256.668 4.288 255.276 4.288ZM257.148 19H253.404V6.088H257.148V19ZM268.255 5.896C271.879 5.896 274.687 8.488 274.687 12.544C274.687 16.6 271.879 19.192 268.255 19.192C266.647 19.192 265.327 18.688 264.367 17.632V23.656H260.623V6.088H264.199V7.576C265.135 6.448 266.527 5.896 268.255 5.896ZM267.607 16.12C269.479 16.12 270.895 14.776 270.895 12.544C270.895 10.312 269.479 8.968 267.607 8.968C265.735 8.968 264.319 10.312 264.319 12.544C264.319 14.776 265.735 16.12 267.607 16.12ZM292.294 19.288C287.086 19.288 283.198 15.664 283.198 10.6C283.198 5.536 287.086 1.912 292.318 1.912C295.222 1.912 297.646 2.968 299.23 4.888L296.734 7.192C295.606 5.896 294.19 5.224 292.51 5.224C289.366 5.224 287.134 7.432 287.134 10.6C287.134 13.768 289.366 15.976 292.51 15.976C294.19 15.976 295.606 15.304 296.734 13.984L299.23 16.288C297.646 18.232 295.222 19.288 292.294 19.288ZM313.794 12.592C313.794 12.88 313.746 13.288 313.722 13.6H303.954C304.314 15.208 305.682 16.192 307.65 16.192C309.018 16.192 310.002 15.784 310.89 14.944L312.882 17.104C311.682 18.472 309.882 19.192 307.554 19.192C303.09 19.192 300.186 16.384 300.186 12.544C300.186 8.68 303.138 5.896 307.074 5.896C310.866 5.896 313.794 8.44 313.794 12.592ZM307.098 8.728C305.394 8.728 304.17 9.76 303.906 11.416H310.266C310.002 9.784 308.778 8.728 307.098 8.728ZM320.031 19H316.287V1.192H320.031V19ZM327.249 19H323.505V1.192H327.249V19ZM99.6967 41.4V31.2H103.537V48H100.345L91.9687 37.8V48H88.1287V31.2H91.3447L99.6967 41.4ZM111.4 48H107.512V31.2H111.4V48ZM122.755 48H118.867V34.368H113.491V31.2H128.131V34.368H122.755V48ZM153.651 48H149.571L148.083 44.4H140.283L138.795 48H134.811L142.299 31.2H146.139L153.651 48ZM144.195 35.016L141.531 41.448H146.859L144.195 35.016ZM164.781 36.744V35.088H168.333V45.84C168.333 50.64 165.741 52.848 161.085 52.848C158.637 52.848 156.261 52.248 154.749 51.072L156.237 48.384C157.341 49.272 159.141 49.848 160.797 49.848C163.437 49.848 164.589 48.648 164.589 46.32V45.768C163.605 46.848 162.189 47.376 160.509 47.376C156.933 47.376 154.053 44.904 154.053 41.136C154.053 37.368 156.933 34.896 160.509 34.896C162.309 34.896 163.797 35.496 164.781 36.744ZM161.253 44.304C163.221 44.304 164.637 43.032 164.637 41.136C164.637 39.24 163.221 37.968 161.253 37.968C159.285 37.968 157.845 39.24 157.845 41.136C157.845 43.032 159.285 44.304 161.253 44.304ZM177.026 34.896C180.962 34.896 183.242 36.72 183.242 40.632V48H179.738V46.392C179.042 47.568 177.698 48.192 175.802 48.192C172.778 48.192 170.978 46.512 170.978 44.28C170.978 42 172.586 40.416 176.522 40.416H179.498C179.498 38.808 178.538 37.872 176.522 37.872C175.154 37.872 173.738 38.328 172.802 39.072L171.458 36.456C172.874 35.448 174.962 34.896 177.026 34.896ZM176.738 45.672C177.986 45.672 179.066 45.096 179.498 43.92V42.6H176.93C175.178 42.6 174.626 43.248 174.626 44.112C174.626 45.048 175.418 45.672 176.738 45.672ZM190.206 35.088V36.792C191.118 35.544 192.654 34.896 194.646 34.896V38.352C194.334 38.328 194.094 38.304 193.806 38.304C191.742 38.304 190.374 39.432 190.374 41.904V48H186.63V35.088H190.206ZM204.638 44.736L205.646 47.376C204.878 47.928 203.75 48.192 202.598 48.192C199.55 48.192 197.774 46.632 197.774 43.56V38.256H195.782V35.376H197.774V32.232H201.518V35.376H204.734V38.256H201.518V43.512C201.518 44.616 202.118 45.216 203.126 45.216C203.678 45.216 204.23 45.048 204.638 44.736ZM212.956 34.896C216.892 34.896 219.172 36.72 219.172 40.632V48H215.668V46.392C214.972 47.568 213.628 48.192 211.732 48.192C208.708 48.192 206.908 46.512 206.908 44.28C206.908 42 208.516 40.416 212.452 40.416H215.428C215.428 38.808 214.468 37.872 212.452 37.872C211.084 37.872 209.668 38.328 208.732 39.072L207.388 36.456C208.804 35.448 210.892 34.896 212.956 34.896ZM212.668 45.672C213.916 45.672 214.996 45.096 215.428 43.92V42.6H212.86C211.108 42.6 210.556 43.248 210.556 44.112C210.556 45.048 211.348 45.672 212.668 45.672ZM226.304 48H222.56V30.192H226.304V48ZM234.987 34.896C238.923 34.896 241.203 36.72 241.203 40.632V48H237.699V46.392C237.003 47.568 235.659 48.192 233.763 48.192C230.739 48.192 228.939 46.512 228.939 44.28C228.939 42 230.547 40.416 234.483 40.416H237.459C237.459 38.808 236.499 37.872 234.483 37.872C233.115 37.872 231.699 38.328 230.763 39.072L229.419 36.456C230.835 35.448 232.923 34.896 234.987 34.896ZM234.699 45.672C235.947 45.672 237.027 45.096 237.459 43.92V42.6H234.891C233.139 42.6 232.587 43.248 232.587 44.112C232.587 45.048 233.379 45.672 234.699 45.672Z" fill="url(#paint0_linear_51_173)"/>
<defs>
<linearGradient id="paint0_linear_51_173" x1="288.124" y1="19" x2="29.9091" y2="19" gradientUnits="userSpaceOnUse">
<stop stop-color="#DC8C29"/>
<stop offset="0.659375" stop-color="#D9D9D9"/>
</linearGradient>
</defs>
</svg>
